<?xml version="1.0" encoding="UTF-8"?>
<svg width="12px" height="21px" viewBox="0 0 12 21" version="1.1" xmlns="http://www.w3.org/2000/svg" xmlns:xlink="http://www.w3.org/1999/xlink">
    <title>Graphics / ionfox / 16px / logo / facebook 2</title>
    <defs>
        <path d="M7.10177951,20.0520833 L7.10177951,10.9057304 L10.317202,10.9057304 L10.8109086,7.33877329 L7.10177951,7.33877329 L7.10177951,5.06122296 C7.10177951,4.03692783 7.39293981,3.32594651 8.95001447,3.32594651 L10.9375,3.32594651 L10.9375,0.14460637 C10.5957031,0.0964042468 9.41840278,0 8.05121528,0 C5.19024884,0 3.2280816,1.66297326 3.2280816,4.71175756 L3.2280816,7.33877329 L0,7.33877329 L0,10.9057304 L3.2280816,10.9057304 L3.2280816,20.0520833 L7.10177951,20.0520833 Z" id="path-1"></path>
    </defs>
    <g id="Page-1" stroke="none" stroke-width="1" fill="none" fill-rule="evenodd">
        <g id="Homepage" transform="translate(-1172.000000, -3782.000000)">
            <g id="Group-9" transform="translate(0.000000, 3769.000000)">
                <g id="Graphics-/-ionfox-/-16px-/-logo-/-facebook-2" transform="translate(1172.250000, 13.125000)">
                    <mask id="mask-2" fill="white">
                        <use xlink:href="#path-1"></use>
                    </mask>
                    <use id="" fill="#000000" fill-rule="nonzero" xlink:href="#path-1"></use>
                    <g id="Group" mask="url(#mask-2)">
                        <g transform="translate(-6.250000, -3.125000)" id="🎨-color">
                            <rect id="Colors-/-Secondary" fill="#FFFFFF" x="0" y="0" width="25" height="25"></rect>
                        </g>
                    </g>
                </g>
            </g>
        </g>
    </g>
</svg>